<svg width="1372" height="373" viewBox="0 0 1372 373" fill="none" xmlns="http://www.w3.org/2000/svg">
<path d="M503.922 451.841C1039.32 537.475 1621.12 536.376 1619.03 391.487C1618.99 388.51 1617.32 385.665 1614.91 383.922C1246.66 117.928 897.602 268.455 395.175 186.278C-120.13 101.994 -298.234 152.939 -228.655 280.538C-159.077 408.136 -37.2964 365.277 503.922 451.841Z" fill="#E26C7A"/>
<g clip-path="url(#clip0_240_2)">
<path d="M193.073 321.259C192.244 319.769 191.176 319.006 189.482 319.006C187.702 319.006 185.747 320.307 185.747 322.408C185.747 324.276 187.462 325.257 188.857 325.824L190.456 326.5C193.64 327.822 196.009 329.698 196.009 333.695C196.009 338.042 192.869 341.16 188.857 341.16C185.245 341.16 182.425 338.303 181.945 334.458L184.765 333.826C184.736 336.457 186.691 338.361 189.097 338.361C191.503 338.361 193.218 336.203 193.218 333.695C193.218 331.122 191.292 330.017 189.366 329.16L187.825 328.462C185.274 327.292 182.948 325.736 182.948 322.408C182.948 318.534 186.161 316.215 189.541 316.215C192.034 316.215 194.083 317.516 195.297 319.835L193.073 321.259Z" fill="black"/>
<path d="M205.094 340.646H202.303V319.452H196.997V316.719H210.407V319.452H205.094V340.646Z" fill="black"/>
<path d="M215.008 316.722V330.837C215.008 334.748 216.105 338.36 220.408 338.36C224.711 338.36 225.808 334.748 225.808 330.837V316.722H228.599V331.855C228.599 337.124 225.539 341.158 220.408 341.158C215.277 341.158 212.217 337.124 212.217 331.855V316.722H215.008Z" fill="black"/>
<path d="M235.014 337.918H235.995C241.687 337.918 246.614 335.636 246.614 328.687C246.614 321.703 241.687 319.449 235.995 319.449H235.014V337.918ZM232.223 316.724H236.853C243.714 316.724 249.405 320.59 249.405 328.556C249.405 336.711 243.823 340.644 236.759 340.644H232.223V316.724Z" fill="black"/>
<path d="M254.903 340.65H252.112V316.723H254.903V340.65Z" fill="black"/>
<path d="M278.163 328.684C278.163 323.414 274.485 319.002 269.23 319.002C263.982 319.002 260.305 323.414 260.305 328.684C260.305 334.142 264.397 338.365 269.23 338.365C274.071 338.365 278.163 334.142 278.163 328.684ZM280.954 328.684C280.954 335.792 275.706 341.149 269.23 341.149C262.761 341.149 257.514 335.792 257.514 328.684C257.514 321.83 262.827 316.219 269.23 316.219C275.641 316.219 280.954 321.83 280.954 328.684Z" fill="black"/>
<path d="M312.619 328.589V329.541C312.619 336.112 308.288 341.156 302.03 341.156C295.764 341.156 290.72 335.378 290.72 328.749C290.72 321.866 295.888 316.211 302.32 316.211C305.795 316.211 309.24 317.89 311.435 320.849L309.48 322.847C307.873 320.5 305.169 318.944 302.444 318.944C297.429 318.944 293.511 323.291 293.511 328.647C293.511 333.67 297.371 338.423 302.204 338.423C305.678 338.423 309.414 335.225 309.53 331.315H303.745V328.589H312.619Z" fill="black"/>
<path d="M328.589 326.367V316.722H331.38V340.642H328.589V329.166H317.941V340.642H315.15V316.722H317.941V326.367H328.589Z" fill="black"/>
<path d="M338.124 340.65H335.333V316.723H338.124V340.65Z" fill="black"/>
<path d="M344.856 337.981H346.993C349.573 337.981 352.27 337.159 352.27 333.758C352.27 330.4 349.072 329.695 346.579 329.695H344.856V337.981ZM344.856 327.325H345.568C348.214 327.325 350.373 326.751 350.373 323.32C350.373 319.955 348.236 319.388 345.626 319.388H344.856V327.325ZM342.065 316.721H344.798C349.006 316.721 352.982 317.891 352.982 323.291C352.982 325.028 352.095 327.064 350.576 327.827V327.885C353.222 328.401 355.061 331.156 355.061 333.947C355.061 338.744 351.237 340.648 347.291 340.648H342.065V316.721Z" fill="black"/>
<path d="M360.973 337.918H367.769V340.644H358.182V316.724H360.973V337.918Z" fill="black"/>
<path d="M372.299 340.65H369.509V316.723H372.299V340.65Z" fill="black"/>
<path d="M151.154 300.779C158.03 298.082 165.727 290.727 169.122 280.798H152.928V277.172H173.853C173.446 279.032 172.298 284.527 167.871 290.988C169.71 292.558 174.26 296.512 178.403 300.873L175.467 304.042C174.195 302.443 171.927 299.609 165.756 293.852C163.583 296.512 159.251 301.317 153.306 303.904L151.154 300.779Z" fill="black"/>
<path d="M189.203 287.092C190.541 287.695 193.157 288.895 196.428 291.816C199.168 288.059 199.88 284.49 200.164 283.131H189.269C186.18 287.695 183.534 289.658 181.077 291.184L178.744 288.386C184.188 285.355 187.023 281.336 189.167 275.368L192.939 276.132C192.343 277.534 191.973 278.399 191.289 279.671H204.554C203.74 284.89 201.065 300.175 182.698 304.747L180.707 301.447C182.815 301.076 188.113 300.146 193.935 294.651C190.824 291.722 187.99 290.29 186.769 289.658L189.203 287.092Z" fill="black"/>
<path d="M206.929 299.679C218.667 298.647 223.995 294.846 228.036 281.567L231.408 283.166C227.171 295.783 221.909 301.976 207.801 303.677L206.929 299.679ZM230.311 279.735C229.598 276.733 229.002 275.374 228.69 274.64L231.219 274.037C232.091 275.963 232.68 278.165 232.898 278.964L230.311 279.735ZM225.768 280.433C225.332 278.165 224.932 276.835 224.3 275.069L226.858 274.473C227.636 276.471 227.919 277.336 228.443 279.764L225.768 280.433ZM213.906 291.459C210.294 289.351 206.682 288.093 205.155 287.592L206.58 284.132C207.743 284.488 212.38 285.964 215.338 287.694L213.906 291.459ZM216.305 283.732C213.216 282.061 210.294 280.934 207.612 280.098L209.109 276.602C213.804 278.1 216.145 279.233 217.889 280.098L216.305 283.732Z" fill="black"/>
<path d="M264.01 299.679C275.748 298.647 281.076 294.846 285.117 281.567L288.489 283.166C284.252 295.783 278.99 301.976 264.882 303.677L264.01 299.679ZM287.392 279.735C286.68 276.733 286.084 275.374 285.771 274.64L288.3 274.037C289.173 275.963 289.761 278.165 289.979 278.964L287.392 279.735ZM282.849 280.433C282.413 278.165 282.013 276.835 281.381 275.069L283.939 274.473C284.717 276.471 285.001 277.336 285.524 279.764L282.849 280.433ZM270.987 291.459C267.375 289.351 263.763 288.093 262.236 287.592L263.661 284.132C264.824 284.488 269.461 285.964 272.419 287.694L270.987 291.459ZM273.386 283.732C270.304 282.061 267.375 280.934 264.693 280.098L266.19 276.602C270.893 278.1 273.226 279.233 274.97 280.098L273.386 283.732Z" fill="black"/>
<path d="M316.763 278.834C316.545 277.496 315.949 275.265 315.426 274L317.977 273.506C318.566 275.142 318.849 276.137 319.285 278.201L316.763 278.834ZM313.492 273.768C314.059 275.171 314.365 276.304 314.801 278.405L313.863 278.536V278.601H315.731C315.208 293.087 308.39 301.307 296.71 303.982L294.748 300.413C299.763 299.381 310.069 297.179 311.748 282.199H292.036V278.601H311.995C311.719 276.937 311.435 275.941 310.818 274.233L313.492 273.768Z" fill="black"/>
<path d="M341.83 288.824C341.83 294.057 340.929 298.149 337.309 301.078C334.482 303.382 331.582 303.971 325.295 304.705L324.147 301.042C332.12 300.511 338.16 299.181 338.16 290.59V276.17H341.83V288.824ZM326.109 294.857H322.504V276.773H326.109V294.857Z" fill="black"/>
<path d="M361.881 274.572C361.634 275.669 361.35 276.868 360.602 278.802H374.026V282.094H363.683V286.826H373.248V290.118H363.683V294.886H373.248V298.15H363.683V305.614H360.325V282.094H359.141C357.055 286.194 355.376 288.091 354.409 289.224L352.287 286.39C355.688 282.865 357.68 277.573 358.428 274.172L361.881 274.572ZM348.464 288.127H348.398C347.344 289.595 346.494 290.424 345.658 291.223L344.226 287.931C347.679 284.464 349.765 280.67 351.138 274.201L354.438 274.804C354.002 276.403 353.29 279.172 351.756 282.465V305.614H348.464V288.127Z" fill="black"/>
<path d="M382.897 283.994H398.094V278.332H382.897V283.994ZM379.822 275.207H401.118V287.134H379.822V275.207ZM394.38 300.784H401.009V292.89H394.38V300.784ZM376.849 289.823H388.958V305.246H385.971V303.88H379.822V305.479H376.849V289.823ZM379.822 300.784H385.993V292.89H379.822V300.784ZM391.371 289.823H404.011V305.479H401.024V303.88H394.38V305.479H391.371V289.823Z" fill="black"/>
<path d="M234.346 298.735C243.759 291.896 246.935 285.71 247.429 284.656L234.179 284.642V280.979H249.573V275.404H253.04V280.979H260.098V284.729H253.069L253.077 304.237H249.573L249.581 287.651C249.581 287.651 246.768 294.447 236.389 301.897L234.346 298.735Z" fill="black"/>
<path d="M150.136 310.009H406.117V310.43H150.136" fill="black"/>
<path d="M152.948 223.628V223.969L152.396 224.158L150.884 224.122L149.372 224.188L149.292 224.035L149.99 223.599C151 223.788 151.88 223.286 152.803 223.541L152.948 223.628Z" fill="black"/>
<path d="M116.589 257.355L116.328 257.668L115.834 258.322L115.485 258.722L114.438 259.565L113.37 260.27C112.672 260.895 111.712 261.367 110.579 261.549L109.212 261.702C108.427 261.614 107.562 261.614 106.923 261.266L106.225 261.048C105.302 260.568 104.946 260.219 104.597 259.216L104.568 258.969H104.51L104.451 258.191L104.364 257.973L104.219 256.272V256.018H104.248L104.277 254.775L104.386 254.528L104.51 254.281H104.568L104.597 253.881H104.619L104.713 253.561V252.42L104.829 252.202L104.88 251.919L104.946 251.424H105.004L105.033 251.141H105.062L105.149 250.865V250.676H105.207L105.265 250.341H105.316L105.847 249.346L106.167 248.939C106.865 248.51 107.468 247.877 108.573 247.819L109.852 247.383C110.55 247.42 111.189 247.601 111.887 247.732L113.341 248.437L114.205 249.375H114.264L114.329 249.564H114.38L114.642 250.058C115.783 252.282 116.291 253.692 116.502 256.272L116.531 256.548H116.589V257.355ZM118.792 257.413L118.014 256.985L117.781 256.796L117.607 256.636L117.491 256.141H117.425L117.345 254.775H117.316L117.258 254.412L117.164 253.845L117.055 252.943H116.996L116.909 252.507H116.88L116.764 252.137L116.648 251.701L116.415 251.017H116.357L116.219 250.647C115.121 247.965 114.511 247.369 111.712 246.678L110.84 246.395C109.91 246.358 108.892 246.395 108.056 246.707C107.388 246.635 107.032 247.013 106.574 247.26L105.44 248.066L105.113 248.568L105.033 248.815L104.684 249.28L104.51 249.498L104.422 249.84H104.386L104.248 250.116V250.211L104.161 250.523H104.132L104.044 250.988H103.986V251.141L103.928 251.701H103.87L103.812 252.42H103.754L103.666 252.82H103.637L103.55 253.343H103.521L103.492 253.721H103.434V254.034H103.376L103.434 254.557L102.852 255.524H102.823L102.852 255.836L102.882 255.923L103.434 256.636H103.376V256.861L103.347 257.631L103.434 258.104L103.521 258.598L103.55 258.751H103.608L103.637 259.034L103.754 259.405L103.87 259.652L104.335 260.343L105.316 261.266L106.247 262.014C107.206 262.261 108.107 262.85 109.27 262.574C109.939 262.479 110.782 262.508 111.218 262.072L112.032 261.92L112.672 261.738L114.031 261.018L114.99 260.299C115.659 259.935 115.979 259.318 116.531 258.874L117.055 258.22L117.258 258.038L118.45 257.886L118.792 257.413Z" fill="black"/>
<path d="M92.5152 248.908L92.6025 248.937H92.5734V248.995H92.5443L92.3408 249.773H92.2827L92.1954 250.246H92.1664L92.0792 250.827H92.0501L91.9919 251.176L91.9047 251.706H91.8466V251.983H91.7884L91.5849 252.39L91.236 252.172L91.2142 251.924H91.2651L91.3233 251.052H91.3814L91.4686 250.653H91.4977L91.5268 250.304H91.5849L91.6431 249.846H91.7012L91.8466 249.373L91.9047 249.184L92.021 248.995V248.879L92.0792 248.821L92.3408 248.632L92.5152 248.908Z" fill="black"/>
<path d="M93.2125 250.895L93.2416 251.026L93.2997 251.331H93.2416L93.1544 251.833L92.6601 251.978L92.5438 251.331L92.6601 251.055L93.2125 250.895Z" fill="black"/>
<path d="M94.288 251.549L94.4043 251.738V252.232L94.2008 252.414L93.7356 251.985L93.7647 251.709L93.8519 251.636L94.288 251.549Z" fill="black"/>
<path d="M95.9126 252.449L95.9708 252.791L95.7963 253.009L95.3094 252.82L95.1858 252.507L95.2149 252.173H95.651L95.9126 252.449Z" fill="black"/>
<path d="M107.616 255.15L107.442 254.932L107.384 254.467L107.587 254.373L107.674 254.467L107.703 254.62L107.616 255.15ZM108.314 254.343L108.19 253.689H108.139L108.081 252.977L107.907 252.635L107.442 252.163C106.511 251.858 106.221 252.665 105.821 253.101L105.639 253.348L105.552 253.66H105.523V253.849L105.436 254.125H105.385L105.327 255.397L105.436 256.546L105.523 256.706L106.163 257.73L107.384 257.665L107.732 257.447L108.139 256.706H108.19L108.256 256.364C108.19 255.615 108.401 255.063 108.314 254.343Z" fill="black"/>
<path d="M83.1647 259.995L83.281 260.184L83.5063 260.526L83.5717 260.86L83.2228 261.267L81.5656 261.703L80.6426 261.238L80.7516 260.991H80.7807L80.8752 260.613H80.9333L80.9842 260.272L81.304 259.865L82.6704 259.588L83.1647 259.995Z" fill="black"/>
<path d="M113.336 270.99C112.144 271.019 111.018 270.99 109.855 270.99L108.634 270.837L108.401 270.619L108.597 270.525L111.214 270.801C111.941 270.583 112.639 270.903 113.336 270.932V270.99ZM138.223 273.977C137.154 273.599 135.904 273.599 134.879 273.199C133.898 273.098 132.99 272.792 131.921 272.88L130.882 272.669L129.893 272.48C129.138 272.327 128.323 272.291 127.509 272.233C126.812 271.855 125.823 272.102 125.184 271.738C124.021 271.673 123.127 271.121 121.964 271.266C121.142 271.237 120.481 270.932 119.609 271.019C118.773 270.772 117.748 270.903 116.912 270.743L115.335 270.619C114.238 270.496 113.075 270.372 111.941 270.496C110.952 270.307 109.913 270.154 108.801 270.183L107.384 269.965L107.122 270.525H107.064L107.093 270.837L107.791 271.644C108.663 271.884 109.68 272.233 110.662 271.957C111.447 271.986 112.202 272.102 112.958 272.015C113.685 272.138 114.441 271.986 115.139 272.175L116.556 272.291C117.487 272.356 118.388 272.262 119.289 272.414C119.987 272.233 120.568 272.574 121.266 272.603L123.759 272.792C124.609 273.069 125.62 272.916 126.463 273.134C127.248 273.163 128.033 273.163 128.76 273.352L130.388 273.505L131.747 273.788L132.968 273.977C133.84 274.282 134.879 274.253 135.759 274.566L137.263 274.871L138.514 274.711L138.572 274.624L138.223 273.977Z" fill="black"/>
<path d="M102.942 274.686C103.814 274.962 104.911 274.744 105.791 275.151L107.034 275.434L107.819 275.71C108.546 275.71 109.272 275.958 110.021 275.987L110.639 276.677V277.048C109.534 276.982 108.611 276.546 107.528 276.43L106.133 276.11C104.475 276.052 103.087 275.151 101.372 275.522L100.354 274.875L100.245 274.497L101.343 274.555L102.942 274.686Z" fill="black"/>
<path d="M136.947 283.04C136.191 283.352 135.384 283.011 134.657 282.916C133.603 282.48 132.361 282.204 131.285 281.797V281.768L129.809 281.521C129.046 281.237 128.21 281.121 127.36 280.99L126.03 280.583C124.838 280.053 123.355 279.624 122.112 279.188C120.884 278.999 119.845 278.541 118.74 278.192L117.577 277.669L117.606 277.574C118.275 277.509 118.798 277.792 119.379 277.887C120.223 278.323 121.349 278.439 122.279 278.723L123.239 278.846C124.082 279.101 125.07 279.188 125.826 279.595C126.553 279.776 127.098 280.242 127.92 280.307C128.908 280.678 130.035 280.896 131.023 281.237L132.855 281.608C133.523 281.797 134.272 281.855 134.89 282.139L135.849 282.422L136.976 282.88H137.005L136.947 283.04ZM138.575 282.982L138.139 282.48L137.15 281.768C136.511 281.797 136.162 281.361 135.522 281.426C134.999 281.179 134.563 280.83 133.836 280.867C132.702 280.46 131.343 280.271 130.093 280.024L128.755 279.435L127.28 278.97L126.204 278.541L124.809 278.134C123.181 277.603 121.444 277.414 119.757 276.949C119.031 276.738 118.129 276.796 117.49 276.462C114.677 276.026 112.089 275.219 109.364 274.652C108.775 274.282 107.845 274.34 107.154 274.064L106.486 273.94C105.817 273.787 105.032 273.751 104.392 273.533L103.695 273.417L102.183 272.944C101.463 272.508 100.475 272.886 99.8569 273.162L99.7479 273.315L99.8351 273.787L100.613 273.475L101.747 273.787C102.764 273.911 103.666 274.194 104.596 274.471L105.003 274.623L105.991 274.994C106.856 275.088 107.736 274.994 108.455 275.336C109.364 275.466 110.112 275.895 111.072 275.677L111.392 275.895C112.031 275.924 112.525 276.273 113.02 276.491L112.467 276.767L112.031 277.298L112.118 277.356C112.896 277.632 113.717 277.756 114.524 278.039C115.513 278.192 116.356 278.694 117.402 278.752C118.972 279.282 120.564 279.653 122.112 280.183C122.861 280.431 123.82 280.554 124.518 280.896L125.129 281.121C125.906 281.237 126.437 281.703 127.251 281.739C128.116 281.986 128.988 282.204 129.838 282.48L131.634 282.953C132.768 283.229 133.989 283.447 135.057 283.818C135.813 283.876 136.482 283.789 137.15 284.007L138.575 283.447V282.982Z" fill="black"/>
<path d="M81.7417 278.784L81.8289 279.097L81.6254 279.279L80.0845 279.155L80.0554 278.784L80.2299 278.537L81.3928 278.406L81.7417 278.784Z" fill="black"/>
<path d="M124.111 290.214L123.936 290.156L122.25 289.408L120.738 288.63L119.263 287.852L117.606 287.271C116.85 286.922 115.948 286.733 115.222 286.333C114.466 286.115 113.768 285.868 113.194 285.396L111.973 284.996C111.362 284.749 110.897 284.342 110.228 284.189L109.327 283.877L107.677 283.07L106.95 282.568L107.154 282.321C108.142 282.423 108.811 283.041 109.821 283.164L110.199 283.288C111.071 283.666 112.06 283.877 112.838 284.371C113.514 284.589 114.233 284.872 114.815 285.149L116.21 285.868L117.053 286.333C117.751 286.609 118.536 286.951 119.11 287.358L120.397 287.918L121.232 288.252L122.977 289.219L124.111 290.055V290.214ZM127.854 291.828L126.989 291.152L126.08 290.302L124.256 289.03C123.471 288.354 122.315 288.041 121.494 287.358L120.36 286.769L119.866 286.551L119.292 286.202C118.623 286.173 118.362 285.679 117.809 285.556L116.617 285.032L115.047 284.4L113.688 283.877L112.554 283.419C111.907 282.975 111.071 282.757 110.316 282.452C109.567 282.358 108.92 282.016 108.222 281.863L108.142 281.762L106.398 281.703L106.071 282.074L105.991 282.423H105.962L106.136 283.041L107.009 283.818C108.113 284.225 109.153 284.807 110.265 285.178L111.827 285.832C112.409 286.304 113.361 286.362 114.03 286.704C114.618 287.271 115.629 287.227 116.305 287.729C117.373 287.852 117.947 288.572 119.03 288.695L119.11 288.783L120.535 289.466L121.581 289.873C122.483 290.127 123.297 290.491 123.936 291.05C124.605 291.108 125.128 291.486 125.768 291.639L126.371 291.988L127.738 292.133L127.89 291.923L127.854 291.828Z" fill="black"/>
<path d="M97.6853 297.108H97.8015L97.976 297.355C98.5284 297.639 98.9863 298.01 99.6549 298.162L100.331 298.751L100.302 299.1L100.244 299.216L100.876 299.594C101.632 299.718 102.126 300.096 102.795 300.241L103.26 300.648L103.493 301.149L103.638 301.266L103.754 301.549L103.812 302.014H103.871C104.983 303.25 105.6 304.231 106.683 305.43L106.945 305.896H107.01C107.774 306.942 109.205 308.076 109.591 309.283L109.91 309.777C110.376 310.431 111.059 311.47 111.248 312.299L111.335 313.44L111.422 313.876H111.451L111.597 314.131L111.713 314.995H111.764L111.975 315.49L112.091 315.744C112.258 316.384 113.014 316.624 113.254 317.699L113.341 317.888L113.45 318.346L113.515 318.601L113.603 319.872L113.886 320.621L114.068 320.926L114.322 321.275L114.969 321.828L115.929 322.794L116.067 323.078L116.183 324.35H116.125L116.038 324.779H116.008L115.979 325.215H115.929L115.95 325.273H115.929V325.338H115.979L116.008 327.075L116.125 328.631L116.27 329.467L116.299 329.844H116.357V330.004L116.394 330.557L116.445 330.869H116.474L116.445 332.301L116.764 332.73L116.735 333.261H116.677L116.619 333.697H116.561L116.532 333.944H116.503L116.416 334.344L116.096 334.663L115.776 334.503V334.067H115.834L115.929 333.479L116.038 332.89V332.701H116.096L116.067 332.33L115.34 331.676L115.282 331.305H115.34L115.434 330.957V330.491H115.463V330.121H115.514L115.463 329.561L115.34 329.285L115.253 329.009L115.165 328.878L115.078 328.478H115.02L114.998 327.453L114.969 326.828H115.02V325.803H114.969V324.691H115.02V324.161H115.078L114.904 323.165H114.846L114.737 322.947L114.148 322.358L113.545 321.74L112.956 320.992L112.905 320.716H112.847L112.818 320.432L112.752 319.691L112.527 319.095L112.462 318.63H112.411L112.294 317.946L112.207 317.757L112.091 317.51L111.626 316.645H111.597L111.451 316.427L111.19 315.926L111.102 315.773L110.899 315.49H110.841L110.724 315.184L110.608 314.785L110.579 314.494H110.521L110.434 313.687L110.376 313.324L110.259 312.11H110.201L110.085 311.797L109.794 311.209L109.62 310.831H109.591L109.445 310.613L109.191 310.155H109.162L109.009 309.871C108.13 308.549 107.904 307.923 106.393 306.731L105.724 305.837H105.702L105.462 305.43C104.474 303.795 103.384 303.81 102.824 302.073L102.242 301.179H102.192L101.203 300.619L99.7494 299.965L99.7131 299.689H99.6549L99.4805 299.282C98.7537 299.282 98.6156 298.664 98.1504 298.409L96.8712 297.697L96.6168 296.89L96.9875 296.738L97.6853 297.108Z" fill="black"/>
<path d="M81.306 325.092L81.2478 326.058H81.1897L81.1606 326.335H81.1315L81.0443 327.388L81.1024 327.512H81.0734L81.0443 328.631H80.9862L80.8699 329.067V329.162L80.521 329.285L80.143 329.133L79.8814 328.631L79.7724 328.479L79.6197 328.166L79.4744 327.759L79.1836 327.359L79.1546 327.265L78.4568 326.305L78.3187 326.146L78.0207 325.557L77.9916 325.281H77.9335L77.6791 324.845L77.2357 324.721L77.0032 324.532L76.6906 324.096L75.6731 323.231C74.9753 322.948 74.5974 322.293 73.6089 322.395L72.4169 322.766V322.853L70.8833 322.795L70.8542 322.7L70.8833 322.235L72.0753 321.152L72.6785 320.68L73.5798 319.997L74.3939 319.19L75.3242 318.441L76.051 317.918C76.6906 317.671 77.1849 317.235 77.8826 317.017L78.4568 317.111L78.7839 317.416L79.0964 317.765L79.2418 318.078L79.5616 318.441L79.7942 318.725L79.9105 319.001L80.0558 319.568H80.114L80.2375 319.909L80.3756 320.302L80.4919 320.651H80.5501L80.6373 321.08L80.7245 321.269L80.7826 321.487L80.9862 322.729H81.0443L81.1315 324.256H81.1606L81.306 325.004L81.2478 325.092H81.306ZM81.9165 324.343L81.8583 323.602L81.713 322.795H81.7421L81.6258 322.046H81.5676L81.5095 321.458H81.4513L81.3932 321.181L81.306 320.375L81.1897 320.055H81.1315L80.9571 319.379L80.8699 318.972H80.8117L80.6954 318.441L80.5501 318.165L80.4338 317.889L80.3175 317.634L80.2375 317.547L79.1836 316.581L78.1661 315.926C77.0613 315.614 76.3345 316.421 75.7021 316.922L75.0916 317.416L73.8705 317.947L73.5507 318.26L73.2382 318.572L72.773 318.972L72.1843 319.437C71.552 319.749 71.254 320.375 70.6798 320.803L70.4181 321.08C69.8512 321.69 69.357 322.352 68.79 322.984V323.26H68.8482L68.8773 323.449L69.2843 323.98C70.4763 324.285 71.6392 323.878 72.7367 323.696L73.9868 323.449C74.6846 323.26 74.9172 323.82 75.3751 324.067L76.051 324.75L76.8287 325.281L76.8651 325.404H76.9232C77.432 326.16 78.137 326.836 78.5804 327.643L78.8638 328.166H78.922L78.9801 328.355L79.0964 328.566H79.1546L79.3072 329.002H79.3581L79.6488 329.656L79.7942 329.838L80.9862 330.463L81.5676 330.158L81.6258 330.092L81.6476 329.809L81.7711 328.442H81.8293V327.89H81.7711V326.923H81.8293V326.553H81.8583L81.8801 326.175H81.9456L82.0328 325.557H82.0619L82.0909 325.281H82.12V324.874L81.9165 324.343Z" fill="black"/>
<path d="M101.809 343.26L101.606 343.478L100.85 343.347C99.8686 342.591 99.1272 341.567 98.3204 340.622L98.2332 340.527C97.8625 340.062 97.0194 339.815 96.3217 339.909L94.8389 339.597C94.054 339.408 93.4434 339.873 92.7166 339.684L92.4549 339.321L92.4259 339.284H92.4549L92.484 338.761L92.6875 338.543L93.0437 338.259L93.4144 337.976L94.5482 336.988V336.922L94.868 336.522L95.7402 335.585L96.2926 335.127C96.7868 334.56 97.3683 334.131 98.2332 333.942L99.2217 333.848L100.152 334.662L100.326 334.88L100.443 335.061L100.733 335.803H100.792L100.879 336.086L100.966 336.246L101.111 336.551L101.199 337.017L101.257 337.445C101.453 338.136 101.22 339.219 101.453 339.873L101.548 340.375H101.606L101.686 341.799H101.722L101.78 342.54L101.867 342.984L101.809 343.26ZM102.769 343.013L102.645 341.799L102.594 341.21H102.623L102.536 340.803L102.507 340.68L102.245 339.466H102.216V339.321H102.245V338.354L102.18 337.082H102.129L102.071 336.522L101.984 336.304L101.867 335.992H101.809L101.751 335.614L101.664 335.468L101.548 335.214H101.518L101.431 335.032L101.17 334.749L100.588 333.971L99.367 332.888L98.4949 332.699C97.6299 332.51 97.252 333.164 96.5542 333.353V333.383L95.6239 334.066L94.1703 335.498L94.0249 335.745V335.868L93.9086 336.086L93.7923 336.304L92.9201 337.358L92.1133 338.012L91.7281 338.572L91.59 338.848L91.1539 339.379V339.815L91.3211 340.062C91.7863 340.593 92.862 340.869 93.676 340.593L94.6936 340.622L96.3435 340.68L96.3725 340.345H96.4379L96.467 340.622H96.4089L96.4961 340.869H96.6705L97.739 341.239V341.298L98.2332 341.741L98.3568 341.988L98.851 342.671L98.96 342.824L99.4252 343.449H99.4833L99.9776 343.943L101.373 344.343L102.565 344.125L102.769 343.725H102.827V343.013H102.769Z" fill="black"/>
<path d="M194.971 271.672L195 271.919L195.203 273.039L195.291 273.417L195.349 273.969H195.407L195.552 274.558H195.61L195.669 275.183H195.727L195.785 275.553H195.843L195.872 275.801L196.134 276.767H196.163L196.192 277.138L196.308 277.85H196.366L196.424 278.344H197.253L197.231 277.945H197.173L197.151 277.661L197.064 277.138H196.999L196.919 276.767H196.89L196.773 276.389L196.686 275.99L196.628 275.306H196.57L196.475 274.936H196.453L196.337 274.529L196.308 274.129L196.221 273.969L196.01 272.886L195.988 272.508H195.93L195.872 272.108L195.785 271.89L195.669 271.585H195.61L195.552 271.178H195.494L195.407 270.735L195.174 270.182L195.058 269.812H195L194.854 269.346L194.738 269.092L194.622 268.845L194.477 268.503H194.447L194.302 267.82H194.244L194.099 267.202L193.982 266.853L193.866 266.635H193.808L193.67 266.207L193.546 265.93L193.343 265.4L193.226 265.087H193.176L193.023 264.433L192.907 264.157H192.848L192.739 263.721H192.681L192.529 263.132L192.412 262.914L192.296 262.667H192.245L192.093 262.231L191.984 261.831L191.86 261.518L191.627 260.923L191.518 260.588L191.344 260.145H191.286L191.257 259.84L191.162 259.498L191.024 258.844H190.988L190.901 258.386L190.821 258.226L190.726 257.95H190.668L190.588 257.477H190.559L190.494 257.23L190.414 256.794L190.297 256.453H190.232L190.094 255.987L189.97 255.711L189.505 254.963L189.163 254.563L188.669 253.843L188.727 253.291L188.807 252.913H188.844L188.807 252.513L188.524 251.823L188.408 251.517H188.349L188.291 251.328H188.233L188.088 251.052H188.03L187.971 250.863H187.913L187.71 250.493C186.452 248.799 185.769 247.215 184.781 245.492L184.49 244.896H184.425L184.163 244.467C183.538 243.697 182.971 242.795 182.135 242.258L181.379 241.64L180.333 242.011L180.507 242.512L181.641 243.166L182.862 244.184L183.414 244.751L184.221 245.557L183.959 245.892L183.531 246.328L183.356 246.51L183.269 246.611L183.356 246.917L183.443 247.018L184.628 247.447V247.505H184.686C185.478 248.457 186.183 249.49 186.896 250.522L187.012 250.798H187.07L187.506 251.517V251.859H187.448L187.397 252.266H187.332L187.012 252.731L186.954 252.789L186.983 252.942L187.361 253.625L188.001 254.287L188.03 254.374L188.873 255.34L189.018 255.646H189.076L189.367 256.365L189.505 256.547L189.658 257.012H189.716L189.803 257.448L189.861 257.913L189.97 258.444L190.123 258.72L190.297 259.062H190.326L190.414 259.44H190.464L190.559 260.058H190.53L190.588 260.523H190.646L190.726 260.893L190.821 261.082L190.901 261.518L191.024 261.831L191.191 262.078L191.344 262.449H191.395L191.518 262.972C191.787 263.721 192.194 264.44 192.507 265.24L192.587 265.741H192.645L192.739 266.177L192.907 266.853H192.972L193.023 267.289H193.081L193.226 267.82H193.285L193.408 268.162L193.517 268.409L193.67 268.758L193.779 269.063H193.837L194.135 269.681L194.302 270.153L194.418 270.429H194.477L194.651 270.924L194.767 271.207L194.913 271.672H194.971Z" fill="black"/>
<path d="M106.689 213.099V213.411H106.63L106.601 213.688H106.572L106.485 213.993L106.311 214.211L105.816 214.778L104.712 214.4L104.392 213.993L104.225 213.818L104.101 213.506L104.014 213.317L103.898 212.881H103.963V212.568H103.992L104.014 211.885L104.225 211.58L104.508 211.18L105.729 210.889L106.34 211.485L106.514 211.987H106.572L106.718 212.757L106.747 213.099H106.689ZM107.415 212.379L107.328 211.638L107.212 211.427L106.979 211.078L106.95 211.02L106.689 210.773L106.223 210.33C105.729 210.024 105.031 210.366 104.392 210.213L103.868 210.613L103.578 210.991L103.294 211.638H103.265L103.171 212.045H103.113V212.663H103.171L103.265 213.506H103.294L103.44 214.182L103.549 214.494H103.607L103.81 214.959L104.392 215.061L106.194 215.243L106.514 214.989L106.95 214.371L107.066 214.182V214.124L107.386 213.506H107.444L107.415 212.379Z" fill="black"/>
<path d="M153.5 218.906V218.935L153.035 218.47L152.831 218.288L152.337 217.634L152.308 217.54L151.407 216.697L150.571 215.992L149.553 215.083L149.379 214.836H149.321L149.291 214.749L149.117 214.465L150.309 215.025C151.377 216.268 152.351 216.689 153.296 217.721L153.442 218.158H153.5L153.558 218.848L153.5 218.906ZM152.802 221.952L152.453 221.864L152.511 221.704L152.976 221.545L153.006 221.603L152.802 221.952ZM128.701 218.441L128.519 218.012L129.369 217.692L129.478 218.288L128.701 218.441ZM122.973 218.877L122.712 219.248L121.44 220.091L119.55 220.832C118.452 221.014 117.696 221.574 116.701 221.893L115.247 222.293L113.626 223.194L113.248 223.405C112.209 223.623 111.271 224.059 110.494 224.59L108.691 225.368C107.245 226.342 105.856 227.425 104.853 228.907L104.483 229.307L103.262 228.907L102.935 228.384L102.826 228.13L102.44 227.664L102.389 227.475H102.331L102.041 227.047L101.779 226.552L101.634 226.174L101.401 225.746L101.314 225.368H101.256L101.139 225.055L101.11 224.837H101.052L100.965 224.343L100.878 223.841H100.82L100.79 223.405L100.761 221.952L100.82 221.486L100.761 220.898V219.807H100.79L100.878 219.437V218.317H100.82V217.569H100.878L100.79 216.915H100.761L100.674 216.457H100.616V215.832L100.82 215.679L101.51 215.33L101.634 215.149L101.808 214.901V214.342H101.895V214.058H101.953L101.975 213.499H102.012L101.975 212.852L101.779 211.892L101.372 211.391L100.761 211.173V210.679H100.79L100.82 210.337H100.878L100.936 209.93H100.994L101.692 208.723L101.808 208.447L101.953 208.258L102.208 207.786L102.389 207.597L102.44 207.292H102.506L102.419 206.855L102.331 206.732L102.157 206.456L102.012 206.143H102.041V205.925H102.07C102.012 205.118 102.208 204.406 102.07 203.628L102.128 203.599L102.099 203.439H102.128L102.07 202.604H102.012L101.953 202.138H101.895L101.779 201.579L101.75 201.332H101.692L101.634 200.859H101.575L101.546 200.183C101.372 199.5 101.488 198.475 101.459 197.632L101.51 196.607H101.546L101.634 196.331V195.27H101.692L101.779 194.652H101.808V194.151L101.924 194.092L102.157 194.281C102.542 195.219 102.935 196.149 103.465 197.007L103.691 197.785H103.727L103.865 198.286H103.923L104.047 198.533L104.068 198.664L104.127 199.093L104.156 199.122H104.127V200.023H104.068L103.989 200.714L104.047 200.743H103.989L104.047 200.772H103.989V200.99H104.047V201.077H103.989V201.695H103.959L103.923 202.356H103.865L103.923 203.352H103.865V203.905H103.814L103.785 205.053H103.756V205.896H103.814L103.989 206.078L104.592 205.518V205.402H104.621V204.711L104.715 203.657V203.381H104.744L104.715 202.545V202.073H104.744L104.766 201.477H104.824L104.919 200.925V200.27H104.948L104.977 199.406H105.006L104.977 199.369H105.006L105.086 197.756H105.115L105.21 197.196V196.949H105.26L105.348 196.513H105.377L105.464 196.048H105.493L105.58 195.335H105.646V194.34H105.58V193.903H105.646L105.617 193.874H105.646L105.697 193.438H105.755L105.813 192.937H105.871L105.958 192.537H105.987L106.074 192.203L106.22 192.072L106.743 192.726L106.83 193.039L107.005 193.315L107.121 193.533L107.266 194.005H107.296L107.441 194.281L107.528 194.594L107.615 194.812L107.703 195.364H107.732L107.848 195.648L107.935 195.764L108.051 196.048L108.197 196.513H108.255L108.313 196.862H108.371L108.509 197.225L108.807 197.727L108.924 198.068L108.953 198.344H109.011L109.069 198.94H109.127L109.185 199.834C109.236 200.779 109.287 201.869 109.934 202.604L110.465 203.163C110.922 203.687 111.388 204.188 112.26 204.377L113.481 205.184L114.324 205.925L114.527 206.325H114.586L114.702 206.543C115.196 207.444 115.451 208.331 116.039 209.123L116.33 209.428C117.987 212.641 117.318 211.049 119.492 213.252L119.811 213.724L120.364 214.807H120.393L120.538 215.243L120.655 215.679H120.713L120.858 216.239H120.916L121.033 216.486L121.265 216.915L121.352 217.104L121.381 217.198L122.973 217.969L123.126 218.594L122.973 218.877ZM100.383 214.836L100.238 214.589L100.151 213.499L100.209 213.033H100.238L100.333 212.663L100.558 212.285L100.82 211.951L100.936 212.11L101.081 212.285L100.558 213.281L100.79 213.6L101.052 213.84L101.198 213.942L101.168 214.305H101.11L100.849 214.683L100.383 214.836ZM57.7843 309.345L58.8891 308.604C59.6668 308.131 60.5171 307.724 61.2949 307.23L61.76 307.55L61.7891 307.761L61.8472 308.415L61.9708 309.316H61.9926V310.246H61.9708L61.9054 311.395L61.9708 311.678H61.9926L62.1089 312.172L62.138 312.572H62.1961L62.2252 314.069L62.3415 315.312L62.4578 316.264L62.4868 316.308H62.4578L62.5159 316.395H62.4578L62.4868 316.453H62.4578L62.3996 316.926L62.2543 317.078L62.0507 317.049L61.6147 316.395L61.5565 316.264L61.1204 315.458L60.7788 315.058L60.5171 314.505H60.4808L60.2192 314.069L60.0811 313.939C59.8485 313.452 59.1507 313.408 58.5038 313.452C57.6971 313.539 57.0865 313.844 56.3306 314.033L55.3712 314.535L53.9176 315.247L53.5106 315.152L53.4524 314.905H53.4815L53.576 314.346L53.7141 314.033L53.8304 313.844V313.597L54.0121 313.408L54.2083 312.856H54.2447L54.3246 312.572C56.0544 310.144 55.4294 311.903 56.9702 310.028L57.7843 309.345ZM137.64 214.865L137.735 214.807L138.135 214.494H139.327V214.683L138.956 214.996L137.64 215.185V214.865ZM183.845 242.79C183.125 242.136 182.449 241.423 181.904 240.675L181.519 239.468L181.083 239.119L180.916 238.814L180.77 238.196L179.636 236.67C178.946 236.176 178.59 235.34 177.783 234.962L176.824 234.184L176.62 233.879L176.7 233.726L176.874 233.435V232.978L175.661 232.011L175.043 231.386L173.509 230.121C172.782 229.772 172.085 229.372 171.213 229.372C170.428 229.031 169.497 228.936 168.77 228.442L167.237 227.723L165.754 226.77L165.144 226.269L165.056 225.833L166.684 226.204L167.673 226.145L167.731 225.746L167.528 225.462L166.248 225.121L164.911 224.932L163.784 224.059L164.046 223.87L165.936 224.219L166.626 224.343C167.266 224.496 167.905 224.808 168.603 224.721L169.672 224.401L169.526 224.125C168.073 224.001 166.859 223.318 165.463 223.136L164.097 222.598L164.744 222.257C165.58 222.17 166.306 222.446 167.062 222.446C168.458 222.598 169.672 223.064 170.893 223.594L172.404 224.314L172.87 224.059V223.565L172.492 223.253L171.213 222.293C170.457 222.446 170.086 221.675 169.301 221.821C168.109 221.675 166.946 221.297 165.703 221.421L164.25 221.203L164.046 220.927L164.25 220.738L165.434 220.651C166.074 220.549 166.713 220.549 167.382 220.491C168.371 220.338 169.526 220.396 170.515 220.585L170.689 220.462V220.149C169.359 219.56 167.847 219.902 166.394 219.771L164.649 219.873L164.475 219.655L165.754 218.935C166.51 218.506 167.498 218.441 168.196 217.881C168.894 217.569 169.701 217.54 170.457 217.482L171.939 216.42L172.056 216.21L172.441 215.49L172.753 214.967L172.841 214.407H172.87L172.899 214L172.928 213.629L173.015 212.634L173.044 211.638L173.131 211.609L173.044 210.955L173.131 210.584V209.341L173.073 209.283C173.044 208.658 173.073 207.728 173.044 206.921L173.189 206.543L173.131 205.896L173.189 204.74L173.248 203.934L173.306 203.905C173.306 203.127 173.335 202.415 173.364 201.666L173.306 201.332C173.102 200.256 173.269 197.32 173.044 196.084L172.928 195.393C172.986 194.71 172.812 194.151 172.87 193.467L172.753 193.191L172.812 192.508L172.753 192.479L172.695 191.207L172.608 190.96L172.492 190.742V190.022L172.441 189.993L172.346 189.085L172.143 188.656L172.085 188.031L171.997 187.384L171.939 186.577V184.993L171.852 184.964L171.91 184.898L171.852 184.869L171.91 184.433H171.881L171.852 183.408L171.794 183.372L171.743 182.42C171.365 180.428 171.256 178.444 170.602 176.518L170.348 175.711C170.028 174.992 169.991 173.909 169.468 173.313L168.894 173L167.346 173.349L167.179 173.69L166.946 173.938L166.713 174.337L166.481 174.614L166.103 175.275L165.58 176.329L165.085 177.383L164.795 177.877L164.475 178.466L164.279 178.72L164.097 178.996C163.813 179.745 163.196 180.239 162.796 180.893L162.527 181.366L161.953 182.231C159.954 185.988 158.086 189.761 156.145 193.504L155.942 193.874L155.826 194.252C154.655 199.42 152.708 202.778 150.309 207.451L150.244 207.728L149.982 208.156L150.127 208.564L150.244 210.308C150.68 210.984 151.348 211.58 151.843 212.198L152.453 213.004C152.737 214.015 153.711 214.865 153.616 215.992V216.326L152.889 215.963L151.93 215.214C151.377 214.56 150.571 214.029 149.72 213.688C149.379 213.382 149.088 212.692 148.419 213.004L148.158 213.499L147.896 213.688L147.489 214.218C148.267 215.025 149.379 215.585 150.215 216.326L151.348 217.322L152.453 218.565L153.413 219.219L153.5 219.524L153.587 219.96L153.5 220.178L153.267 220.367L152.686 220.055L151.523 219.124L150.745 218.412C150.106 217.881 149.321 217.569 148.652 217.046L147.598 217.264L148.296 217.94C148.943 218.506 149.786 218.783 150.447 219.313L150.651 219.713L150.338 219.655C148.993 219.524 147.78 219.037 146.413 218.877C145.745 218.906 145.25 218.441 144.553 218.536C143.746 218.099 142.721 218.347 141.914 217.94L141.791 217.794L141.391 217.569C140.49 217.722 139.617 217.692 138.694 217.758L138.077 217.634L137.037 217.162L137.088 216.457C137.204 215.614 138.309 216.137 138.745 215.585C139.654 215.556 140.257 214.836 141.158 214.836L141.391 214.371L140.024 214.218L140.083 214.087L140.344 213.84L141.791 213.281L141.653 213.004L141.042 213.099L139.966 213.535C139.189 213.499 138.513 213.659 137.735 213.688L137.204 213.346L136.63 214.131C136.434 214.603 136.95 214.872 136.514 216.021L136.339 217.351L135.46 217.569C134.537 217.758 133.607 217.692 132.705 217.91L131.201 218.129L130.932 217.162L130.903 216.609L130.997 215.992L131.048 215.963L130.997 214.654L131.048 214.465L130.997 214.247L131.048 213.688L131.201 213.411L131.259 212.917L131.31 212.328L131.368 211.892L131.281 211.638L131.135 210.984L130.968 210.584L130.932 209.777L129.478 208.811L128.555 208.098C127.908 206.855 128.01 206.071 128.323 204.74L128.439 204.464L128.642 204.064C129.086 202.887 129.529 201.739 129.834 200.525L129.914 199.994L130.27 198.373H130.3L130.329 198.068L130.438 197.45C131.005 195.582 131.775 193.845 132.393 192.014L132.56 191.607L132.618 191.294C134.253 186.693 135.584 185.421 137.968 181.671L139.007 180.399L139.705 179.745L140.024 180.05C140.41 181.409 140.635 182.805 140.897 184.179L140.839 185.923L140.78 185.952L140.955 186.33C141.129 187.689 141.296 189.041 141.362 190.4L141.391 191.483C141.58 192.37 141.653 192.675 141.791 193.627L141.914 193.962V194.87L141.972 194.899C141.914 195.706 142.089 196.331 142.031 197.138L142.089 197.567L142.227 197.974V199.093L142.118 199.616L142.089 200.394L142.031 200.641L141.972 201.419L141.914 201.477L141.885 202.226L141.914 203.003L141.972 203.192L142.089 203.468L142.147 204.406L142.227 204.682L142.35 204.958L142.408 205.489L142.517 205.802L142.583 207.139H142.554L142.488 207.757L141.972 209C141.42 209.712 140.606 210.395 139.53 210.366L138.026 211.086L137.27 211.827L137.204 212.256L137.35 212.474L137.379 212.946L137.706 213.135C138.338 212.946 139.007 212.852 139.654 212.634L140.606 212.445L141.653 212.256L140.17 211.791L139.53 211.827L139.472 211.638L140.926 210.86C141.565 210.453 142.176 210.024 142.721 209.501L143.019 208.971C143.571 208.404 143.39 207.139 143.368 206.398V205.867L143.281 205.431L143.157 204.958V202.633L143.106 202.604L142.954 202.102V200.212L143.048 200.183V199.5L143.106 198.344L143.048 198.003L142.903 197.538V195.488L142.954 195.459L142.903 195.175C143.055 193.467 142.583 191.847 142.517 190.182L142.459 189.717C142.081 188.612 142.452 188.256 142.031 187.384L141.972 186.635L141.827 186.199C141.914 185.523 141.74 184.964 141.791 184.251L141.711 183.692C141.485 180.864 141.02 181.017 140.664 178.996L140.519 178.597L139.269 178.567L138.665 179.243L137.706 180.152L137.611 180.268L137.561 180.617L137.379 180.922L136.979 181.453L136.187 182.725L135.584 183.474C134.457 184.477 134.377 185.69 133.258 187.042L133.2 187.384L133.025 187.784C132.429 189.775 131.375 191.476 130.932 193.344L130.612 194.005L130.561 194.34L130.38 194.776L130.241 194.957C129.609 197.247 128.897 197.821 128.642 200.459L128.555 201.114L128.439 201.332C128.352 203.163 126.52 205.591 127.247 207.292L127.392 207.67L127.567 208.004L127.945 208.658C128.381 209.399 129.34 209.465 130.009 209.995L130.612 210.497L130.096 211.514L129.217 211.144C128.323 210.984 127.712 210.337 126.985 209.959L125.328 209.399L124.696 209.683L125.452 210.337C126.149 210.395 126.811 210.642 127.247 211.115L126.636 211.703L126.2 212.256L127.828 212.358C128.584 212.576 129.544 212.416 130.147 213.033L130.009 213.499L128.177 213.659L127.312 213.971L127.189 214.189L128.257 214.131L129.863 214.189L129.943 214.836L129.573 215.243C128.846 215.403 128.09 215.49 127.392 215.679L127.189 216.079L127.596 216.21L129.282 215.708L129.885 215.861V216.486L129.311 217.104L128.003 217.758L126.382 218.412L125.19 219.095L124.521 219.153L124.572 218.47L124.63 218.099L124.543 217.692L124.434 217.351L123.591 216.915L122.108 216.639L122.05 216.355L121.934 215.926L121.41 214.494L121.323 214.342L121.062 213.84C120.8 212.917 120.044 212.387 119.434 211.732L118.329 210.86C116.454 208.454 116.403 207.284 114.847 205.082L113.452 203.81C112.347 203.41 111.271 202.88 110.581 201.978L110.523 201.579L110.465 201.172L110.319 200.772L110.29 199.834L110.137 199.311V199.217L110.196 198.562L110.087 198.257L109.963 198.003L109.854 197.509L109.701 197.32L109.534 196.702L109.389 196.513L109.207 196.048L108.895 195.553L108.742 195.059L108.72 194.652L108.546 194.34L108.051 193.039L107.528 192.13L107.383 191.701L107.266 191.294L107.121 191.018L106.889 190.364L106.743 190.124L106.111 189.964L105.697 190.364C104.941 191.469 104.788 195.408 104.512 196.389L104.221 196.513L103.836 195.837C103.327 194.717 102.964 193.853 102.564 192.726L101.924 191.883L101.459 191.985L101.314 192.384L101.198 192.98L101.11 193.38L100.994 194.092L100.878 194.529L100.79 195.982L100.732 196.019V196.702L100.616 197.32V198.81L100.674 198.839L100.616 199.028V200.27L100.674 200.307L100.732 201.266C100.936 201.949 101.125 202.596 101.314 203.287L101.227 203.934C101.314 204.74 101.139 205.431 101.198 206.238L101.256 206.732H101.277V207.67C99.5767 210.679 100.1 209.828 99.6566 212.358L99.6348 213.317L99.5403 213.382L99.6348 213.869C99.6494 214.858 99.8747 216.035 99.9764 217.104L100.1 217.605C100.1 218.317 100.035 218.717 100.064 219.466L99.9764 219.495L99.9183 219.96C99.6494 221.414 99.5476 222.896 100.1 224.314L100.333 225.339H100.354L100.529 225.993L101.052 227.228L101.372 227.883L101.866 228.784L101.11 229.685L100.471 230.397L100.006 230.274L99.9764 230.368L99.802 230.274L99.1915 230.797L99.0461 230.274L99.1115 229.627L98.6754 229.372L98.1521 230.15L97.825 230.957L97.6506 231.299C96.4513 232.222 96.0443 234.061 95.0995 235.34L94.7796 235.769L94.6634 236.117C94.2854 237.077 93.7694 237.942 93.3333 238.872L92.8681 239.621L92.6646 240.188L92.4538 240.464C90.8548 242.804 89.8736 245.501 89.4666 248.379L89.3212 248.815L89.2631 249.716H89.234L89.1976 250.029L89.1468 250.334L89.0305 250.618L88.9723 251.424L88.827 251.701L87.9257 252.972L87.1117 253.445L86.0069 253.939C84.5823 254.186 83.2522 254.746 81.9439 255.211L81.4206 255.611C80.4903 255.647 80.0324 256.359 79.4146 256.825V256.919L79.2401 257.203L79.1893 257.66L78.9785 258.068L78.9276 259.034V259.623L78.9785 260.03L79.0657 260.488L79.0366 261.331L78.7459 261.956L78.2008 263.286L77.9973 264.122L77.9391 264.253L77.474 265.219L77.0887 265.147L76.1075 265.176V265.147L75.2644 264.747L74.1306 264.994L74.1887 265.43L74.5957 265.648L76.1875 266.113L77.3504 266.673L77.5321 267.015L77.6775 267.574V268.599L77.6121 268.883L77.4158 269.159C76.5436 269.275 75.7296 269.53 74.9155 269.719C73.8689 269.995 72.9967 270.525 71.9792 270.86L70.3511 271.608L70.3293 272.015L70.5037 272.451L71.9792 272.015L73.789 271.15C74.9446 270.831 75.9912 270.184 77.2414 270.053L77.4158 270.336L77.503 270.714L77.4158 271.179L77.2995 271.456L77.2414 271.797L77.0887 272.044L76.9797 272.51L76.9216 272.982L76.8053 273.193L76.6526 273.658L75.497 274.465L75.0609 275.09L76.6018 274.93L77.2414 275.555L77.2995 276.238L77.4158 276.551L77.5321 276.921L77.6775 277.139L77.7356 277.786L77.8446 278.07L77.9391 278.506L78.0482 278.782L78.1717 279.16L78.3752 279.473L78.2299 279.909C77.6484 280.185 77.0088 280.461 76.311 280.526L75.2353 280.926L74.7992 281.304L74.683 281.798L74.7992 282.605L74.8865 282.881L74.7992 282.91L74.1887 283.753L73.6945 284.815L73.2947 285.52L72.4734 286.646L71.5431 287.14L70.2421 288.376L69.806 288.972L69.7187 289.219L69.6024 289.503L69.4207 289.808L68.2942 290.775L67.8871 291.523C67.5964 292.417 66.5861 292.759 66.15 293.537C65.9393 294.22 65.0671 294.278 64.7763 294.874C64.0277 295.339 63.5625 296.022 62.8939 296.546L61.8182 297.389L60.7788 297.883L61.2076 298.632L60.5753 299.504C59.8775 299.933 59.3833 300.463 58.9472 301.088L58.453 301.706L58.5038 301.982L58.7364 302.76L58.6274 302.949L57.5735 304.155L57.261 304.592L56.7667 305.398L56.6795 305.834L56.8249 306.082L56.7667 306.612L56.1562 307.477L55.8073 308.044L55.4875 308.502L55.4584 308.938L55.3131 309.498L55.1386 310.057L54.0411 311.329L53.8086 311.678L53.685 311.983L52.8201 313.226L52.493 313.975L52.4421 314.157L52.3549 314.622L52.2314 314.934L52.1223 315.37L52.0278 316.148L51.9988 317.26L51.9188 317.449L52.0278 317.856L51.301 318.757C50.8286 320.335 50.6759 319.986 50.2326 321.083L50.3416 321.272C50.8358 322.152 50.4797 324.463 50.0291 325.371L50 325.96L50.2907 326.149L50.5524 325.684L50.6687 325.124L50.7268 324.623L50.8722 324.376L50.9885 324.041L51.1048 323.54L51.0466 322.421L51.1629 322.079L51.301 321.672L51.4827 321.301L51.8607 320.807V320.371L51.8243 319.971L51.9188 319.688L52.9291 318.445L53.576 317.762L53.7431 317.478V317.362L53.2489 316.519L53.4233 316.395C54.1792 316.148 54.877 315.647 55.7201 315.588C56.5341 315.21 57.4354 314.375 58.4239 314.905L59.8993 316.083L60.2192 316.555L60.3427 316.889L60.4517 317.202L61.5274 318.227L62.5741 318.074L63.0974 317.231L63.2137 316.802L63.33 316.395L63.4753 316.054V313.975L63.3808 313.408L63.33 312.979L63.2718 312.201H63.2137V308.044L63.0974 307.666L62.952 307.324L62.8939 307.019L62.4287 306.176L60.6843 306.518L60.3936 306.772L58.8891 307.579C58.2713 307.884 57.8352 308.538 57.1447 308.575L57.4063 307.826L57.6389 307.201L57.7552 306.736L57.8061 306.147C58.453 305.747 58.9181 305.122 59.5868 304.722L59.6958 304.439L59.0635 304.374L58.6274 304.468L58.7946 304.192L59.8993 302.949C60.7425 302.542 61.0623 301.793 61.7019 301.241L61.9345 300.369L61.2076 300.311V300.151C63.8242 297.883 63.548 296.429 67.422 293.944L68.9919 292.359C69.6315 292.33 69.7187 291.676 70.213 291.451C71.107 290.368 72.6551 290.091 73.8398 289.219C74.9155 288.565 76.1366 288.26 77.4158 288.013L79.3346 287.511L80.2868 287.322L80.3449 288.013L80.7883 288.158C81.6823 288.66 82.7289 289.096 83.8555 289.001C84.5024 288.754 85.5417 288.63 86.036 289.154C86.7628 289.343 87.1407 289.961 87.9257 290.062L89.1468 290.469L90.3388 291.392L91.2909 292.228C91.8142 292.824 92.6864 293.035 93.1516 293.726L94.2927 294.467L95.303 295.027C96.0298 295.368 96.524 295.993 97.309 296.269L97.9195 296.139L97.5416 295.339L96.0879 294.59L94.2927 293.471C93.5295 293.035 92.7736 292.512 92.1994 291.952L90.8257 290.775L89.3212 289.684C88.5653 289.561 87.8966 289.125 87.1698 288.907C86.5956 288.725 86.1304 288.318 85.4836 288.194L84.0372 288.129L82.758 287.569C82.0893 287.729 82.0602 286.981 81.4788 286.893C80.7519 286.828 79.967 286.733 79.2111 286.828C78.4334 286.733 77.9101 287.482 77.1469 287.14C76.5146 287.17 75.9622 287.482 75.3516 287.511C74.5376 287.824 73.789 288.129 73.0912 288.63L71.9574 289.219L70.7363 289.503L70.7944 289.096C71.2305 288.289 72.1899 288.042 72.8223 287.351L73.0912 287.322L73.8689 286.428L73.9852 286.05L74.1306 285.839L74.6539 285.214L75.4389 284.066L76.4855 283.07L76.7471 282.445L77.1469 281.856L77.2995 281.304C77.8446 280.803 78.695 280.832 79.3637 280.585L79.5018 280.337L79.0657 279.654L79.3346 278.811C78.7023 276.456 77.5394 275.38 77.8446 272.386L77.9973 272.103L78.0482 271.674L78.1717 271.332L78.2299 270.932L78.3752 270.583V269.907L78.4915 269.377L78.6078 268.41L78.7459 268.105V267.385L78.6078 267.015L78.4915 266.579L78.5424 266.201L78.666 265.612L78.6369 265.249H78.666L78.695 264.871C79.5236 263.424 79.073 263.613 79.5963 262.574L80.3231 261.673L80.1196 261.048L79.9379 260.306L79.8579 258.685L80.5775 256.955L81.5951 256.679L82.8961 257.413C83.7465 257.573 84.1535 258.38 84.7349 258.787L84.8803 259.034L85.3091 259.746L85.5126 260.27L85.4327 260.401V261.331L85.6943 261.614L86.443 261.367V260.088L86.2685 259.623L86.1304 259.216L85.8688 258.722C85.4036 258.162 84.9094 257.573 84.2698 257.166L83.8555 256.825L82.6998 256.054L83.8337 255.335L84.2698 255.495L84.3206 255.8C84.9966 256.519 85.6362 255.306 86.443 255.524L86.6465 255.931V256.272L87.257 256.301L89.1976 256.425C90.0189 256.89 88.7397 257.043 88.8851 257.602L90.5423 258.133L90.455 258.409L90.2806 258.685L90.3388 258.969L91.32 259.318L91.647 259.034L90.8839 258.293L91.0365 257.733L91.0874 257.697L91.0365 257.486L90.0189 256.083L89.7282 255.684L88.7688 255.335L88.0711 254.775L88.1874 253.91L89.7282 252.667L90.157 252.885L90.5931 252.725L90.6513 252.544L90.7167 251.482L90.8257 251.301L90.8839 250.777L91.0365 250.211L91.0874 249.753L91.2109 249.564L91.2909 249.062L91.4145 248.757L91.32 248.255L90.8839 248.568L90.7748 248.844L90.7167 249.28L90.5931 249.622L90.3388 250.741L90.1934 251.141L90.157 250.865L90.2806 250.494V249.68L90.3388 249.651L90.3896 248.379L90.5132 248.008C90.8839 246.642 90.8766 245.086 91.7343 243.938L92.2503 242.942L92.8318 241.547C94.0238 239.497 95.2012 236.539 96.4005 234.62L96.8438 233.784L97.2218 233.406L97.1927 234.184L97.5416 234.46L97.8832 233.784L98.3193 232.73L98.4937 232.382L98.7045 232.076L99.1406 231.924L99.5694 232.411L100.238 232.105L101.314 230.71L101.43 230.521L101.546 230.245L102.389 229.409L104.047 229.627L104.127 229.772L104.279 230.368L105.181 229.961C105.646 229.249 106.307 228.689 106.83 228.035C107.761 227.228 108.546 226.363 109.672 225.746L109.963 225.804L111.017 225.644C111.744 224.968 112.848 224.721 113.655 224.19C114.237 223.66 115.138 223.471 115.865 223.1C116.504 222.787 117.26 222.787 117.864 222.482C118.968 222.199 119.811 221.516 120.829 221.174C121.672 221.014 122.283 220.425 123.177 220.462C123.998 220.309 124.754 219.902 125.59 219.807C126.382 219.713 127.102 219.313 127.886 219.437L128.984 219.153C129.682 218.819 130.474 218.935 131.259 218.848C131.891 218.63 132.654 218.659 133.316 218.536C134.188 218.223 134.973 218.783 135.845 218.688C138.338 218.412 140.839 218.848 143.186 219.284C144.146 219.56 145.25 219.437 146.21 219.742L146.937 219.844L147.78 219.96L148.216 220.549L148.129 220.869L148.993 221.675L147.954 222.199L147.925 222.511C148.528 222.918 149.408 222.664 150.127 222.729L151.436 222.817L152.744 222.758L153.18 223.376L153.703 223.471L153.878 223.194L153.936 222.729L154.052 222.01C154.59 220.374 154.328 218.129 154.634 216.639V215.243C150.912 207.321 149.749 211.718 153.674 203.57L153.878 203.04C153.921 201.462 155.484 199.856 155.499 198.562L155.593 197.974L155.797 197.603L155.884 197.043H155.942L155.964 196.789C158.428 189.332 163.559 181.773 167.295 174.991L168.109 173.909L169.236 174.032L169.359 175.609L169.417 175.638L169.563 176.169L169.73 176.576L169.853 176.889L169.991 177.354L170.057 177.913L170.166 178.567L170.253 179.403L170.369 179.868V180.646L170.428 180.704L170.515 181.853H170.551L170.602 182.878C170.798 183.292 170.944 184.353 171.125 184.622V185.465L171.183 185.494V188.132L171.249 188.191L171.3 188.598L171.416 188.91L171.511 189.346L171.62 190.124V191.236L171.743 191.549L171.823 192.203L171.939 192.697L171.997 193.344L172.143 193.533L172.056 193.714L172.143 194.405L172.172 196.237L172.259 196.266L172.317 197.974L172.404 198.664H172.441L172.375 198.751C172.346 200.22 172.732 201.76 172.608 202.691L172.579 203.97L172.492 203.999V204.711L172.375 205.213V206.078L172.317 206.107L172.259 207.139L172.317 208.098V209.872L172.172 210.279L172.259 210.737V211.551L172.172 211.609V212.634L172.143 213.317L171.997 213.688L171.939 214.305L171.823 214.749L171.62 215.403C171.067 216.268 169.933 216.58 168.836 216.609C168.196 216.58 167.76 217.075 167.179 217.162C166.51 217.482 165.725 217.54 164.976 217.721C164.22 218.012 163.581 218.594 163.167 219.248L163.028 219.589C163.196 223.522 161.277 225.201 161.255 227.294L161.568 227.577L162.331 227.018L162.469 226.77L162.592 226.393L163.632 226.669C164.475 226.858 165.114 227.323 165.725 227.824C166.946 228.5 168.073 229.409 169.468 229.743L169.991 229.961C170.66 230.056 171.183 230.434 171.852 230.55C172.724 231.146 173.88 231.386 174.578 232.2L174.498 232.6L173.509 232.759L173.015 233.13L174.294 233.879L176.329 235.027C177.456 235.398 178.248 236.234 178.881 237.04L179.026 237.448L178.793 237.578C178.212 237.36 177.572 237.077 176.904 237.142L176.329 237.542L177.136 237.978C178.27 238.225 179.346 238.785 180.072 239.526L181.206 240.646L182.246 241.736L183.031 242.601L183.728 243.378H184.077L183.845 242.79Z" fill="black"/>
<path d="M105.783 211.996L105.9 212.185L105.929 213.021L105.958 213.515L105.9 213.58L105.173 213.798L104.911 213.609L104.766 213.297L104.504 212.432L104.715 212.185V212.083L105.028 211.938L105.783 211.996Z" fill="black"/>
</g>
<defs>
<clipPath id="clip0_240_2">
<rect width="356.116" height="171.343" fill="white" transform="translate(50 173)"/>
</clipPath>
</defs>
</svg>
