<svg width="118" height="46" viewBox="0 0 118 46" fill="none" xmlns="http://www.w3.org/2000/svg">
<path fill-rule="evenodd" clip-rule="evenodd" d="M23.5 0C10.5162 0 0 10.0687 0 22.5C0 32.4562 6.72688 40.8656 16.0681 43.8469C17.2431 44.0437 17.6837 43.3687 17.6837 42.7781C17.6837 42.2437 17.6544 40.4719 17.6544 38.5875C11.75 39.6281 10.2225 37.2094 9.7525 35.9437C9.48813 35.2969 8.3425 33.3 7.34375 32.7656C6.52125 32.3437 5.34625 31.3031 7.31437 31.275C9.165 31.2469 10.4869 32.9062 10.9275 33.5812C13.0425 36.9844 16.4206 36.0281 17.7719 35.4375C17.9775 33.975 18.5944 32.9906 19.27 32.4281C14.0413 31.8656 8.5775 29.925 8.5775 21.3187C8.5775 18.8719 9.48813 16.8469 10.9863 15.2719C10.7513 14.7094 9.92875 12.4031 11.2213 9.30937C11.2213 9.30937 13.1894 8.71875 17.6837 11.6156C19.5637 11.1094 21.5612 10.8562 23.5587 10.8562C25.5562 10.8562 27.5538 11.1094 29.4338 11.6156C33.9281 8.69062 35.8963 9.30937 35.8963 9.30937C37.1888 12.4031 36.3663 14.7094 36.1313 15.2719C37.6294 16.8469 38.54 18.8437 38.54 21.3187C38.54 29.9531 33.0469 31.8656 27.8181 32.4281C28.67 33.1312 29.4044 34.4812 29.4044 36.5906C29.4044 39.6 29.375 42.0187 29.375 42.7781C29.375 43.3687 29.8156 44.0719 30.9906 43.8469C35.6557 42.3388 39.7095 39.4681 42.5813 35.6388C45.4532 31.8095 46.9986 27.2143 47 22.5C47 10.0687 36.4838 0 23.5 0Z" fill="black"/>
<path fill-rule="evenodd" clip-rule="evenodd" d="M72.9583 6.32125C72.9583 5.40725 73.3375 4.53069 74.0126 3.88439C74.6876 3.23809 75.6031 2.875 76.5577 2.875H112.438C112.911 2.87426 113.38 2.96287 113.817 3.13575C114.255 3.30864 114.652 3.5624 114.987 3.88251C115.321 4.20262 115.587 4.5828 115.768 5.00127C115.949 5.41975 116.042 5.8683 116.042 6.32125V40.675C116.042 41.128 115.949 41.5767 115.769 41.9954C115.588 42.4141 115.323 42.7945 114.988 43.115C114.654 43.4354 114.256 43.6895 113.819 43.8629C113.382 44.0362 112.913 44.1253 112.44 44.125H76.5577C76.0849 44.125 75.6167 44.0358 75.1798 43.8625C74.743 43.6892 74.3461 43.4352 74.0119 43.115C73.6776 42.7947 73.4125 42.4146 73.2317 41.9963C73.051 41.5779 72.9581 41.1296 72.9583 40.6769V6.32125ZM90.0115 18.6025H95.8454V21.4075C96.6874 19.795 98.8416 18.3438 102.079 18.3438C108.285 18.3438 109.755 21.5556 109.755 27.4488V38.365H103.475V28.7913C103.475 25.435 102.633 23.5413 100.494 23.5413C97.5276 23.5413 96.2938 25.5831 96.2938 28.7913V38.365H90.0115V18.6025ZM79.2406 38.1081H85.523V18.3438H79.2406V38.1063V38.1081ZM86.4219 11.8975C86.4337 12.4125 86.338 12.9246 86.1403 13.4037C85.9427 13.8828 85.647 14.3193 85.2708 14.6876C84.8946 15.0558 84.4453 15.3484 83.9494 15.5481C83.4534 15.7479 82.9208 15.8508 82.3828 15.8508C81.8448 15.8508 81.3121 15.7479 80.8162 15.5481C80.3203 15.3484 79.871 15.0558 79.4948 14.6876C79.1185 14.3193 78.8229 13.8828 78.6253 13.4037C78.4276 12.9246 78.3319 12.4125 78.3437 11.8975C78.367 10.8866 78.8027 9.92461 79.5577 9.21754C80.3126 8.51047 81.3267 8.11454 82.3828 8.11454C83.4389 8.11454 84.453 8.51047 85.2079 9.21754C85.9629 9.92461 86.3986 10.8866 86.4219 11.8975V11.8975Z" fill="black"/>
</svg>
