<svg width="47" height="45" viewBox="0 0 47 45" fill="none" xmlns="http://www.w3.org/2000/svg">
<path fill-rule="evenodd" clip-rule="evenodd" d="M23.5 0C10.5162 0 0 10.0687 0 22.5C0 32.4562 6.72688 40.8656 16.0681 43.8469C17.2431 44.0437 17.6837 43.3687 17.6837 42.7781C17.6837 42.2437 17.6544 40.4719 17.6544 38.5875C11.75 39.6281 10.2225 37.2094 9.7525 35.9437C9.48813 35.2969 8.3425 33.3 7.34375 32.7656C6.52125 32.3437 5.34625 31.3031 7.31437 31.275C9.165 31.2469 10.4869 32.9062 10.9275 33.5812C13.0425 36.9844 16.4206 36.0281 17.7719 35.4375C17.9775 33.975 18.5944 32.9906 19.27 32.4281C14.0413 31.8656 8.5775 29.925 8.5775 21.3187C8.5775 18.8719 9.48813 16.8469 10.9863 15.2719C10.7513 14.7094 9.92875 12.4031 11.2213 9.30937C11.2213 9.30937 13.1894 8.71875 17.6837 11.6156C19.5637 11.1094 21.5612 10.8562 23.5587 10.8562C25.5562 10.8562 27.5538 11.1094 29.4338 11.6156C33.9281 8.69062 35.8963 9.30937 35.8963 9.30937C37.1888 12.4031 36.3663 14.7094 36.1313 15.2719C37.6294 16.8469 38.54 18.8437 38.54 21.3187C38.54 29.9531 33.0469 31.8656 27.8181 32.4281C28.67 33.1312 29.4044 34.4812 29.4044 36.5906C29.4044 39.6 29.375 42.0187 29.375 42.7781C29.375 43.3687 29.8156 44.0719 30.9906 43.8469C35.6557 42.3388 39.7095 39.4681 42.5813 35.6388C45.4532 31.8095 46.9986 27.2143 47 22.5C47 10.0687 36.4838 0 23.5 0Z" fill="black"/>
</svg>
